<svg width="501" height="413" viewBox="0 0 501 413" fill="none" xmlns="http://www.w3.org/2000/svg">
<circle cx="249.927" cy="181.024" r="130.416" fill="#C4C4C4"/>
<path d="M375.899 147.27C369.974 125.157 358.333 104.993 342.145 88.8056C325.957 72.6179 305.794 60.9765 283.681 55.0514C261.568 49.1263 238.285 49.1263 216.173 55.0514C194.06 60.9764 173.896 72.6179 157.709 88.8055L249.927 181.024L375.899 147.27Z" fill="#A17F7F"/>
<path d="M249.927 311.44C232.8 311.44 215.841 308.066 200.019 301.512C184.196 294.958 169.819 285.352 157.709 273.242C145.598 261.132 135.992 246.755 129.438 230.932C122.884 215.109 119.511 198.15 119.511 181.024L249.927 181.024L249.927 311.44Z" fill="#F6F3F0"/>
<path d="M362.87 246.232C351.516 265.899 335.222 282.26 315.603 293.696C295.983 305.132 273.717 311.247 251.009 311.435L249.927 181.024L362.87 246.232Z" fill="#DDC7A7"/>
<path d="M375.899 147.27C384.851 180.679 380.165 216.277 362.87 246.232L249.927 181.024L375.899 147.27Z" fill="#6C3B3B"/>
<circle cx="249.927" cy="180.057" r="49.0707" fill="white"/>
<circle cx="275.253" cy="94.5789" r="3.16585" fill="black"/>
<circle cx="186.61" cy="238.625" r="3.16585" fill="black"/>
<circle cx="292.665" cy="254.454" r="3.16585" fill="black"/>
<circle cx="169.197" cy="149.981" r="3.16585" fill="black"/>
<circle cx="336.988" cy="186.389" r="3.16585" fill="black"/>
<rect x="310.078" y="36.0107" width="31.6585" height="1.58293" rx="0.791463" fill="black"/>
<rect x="321.159" y="320.937" width="25.3268" height="1.58293" rx="0.791463" fill="black"/>
<path d="M130.193 117.709C130.307 117.213 129.93 116.74 129.421 116.74H117.752C117.315 116.74 116.961 117.094 116.961 117.531V117.531C116.961 117.968 117.315 118.323 117.752 118.323H129.421C129.79 118.323 130.11 118.068 130.193 117.709V117.709Z" fill="black"/>
<path d="M133.009 282.51C133.272 281.983 132.89 281.364 132.301 281.364H120.554C120.117 281.364 119.763 281.718 119.763 282.156V282.156C119.763 282.593 120.117 282.947 120.554 282.947H132.301C132.601 282.947 132.875 282.778 133.009 282.51V282.51Z" fill="black"/>
<rect width="53.2417" height="1.56593" rx="0.782966" transform="matrix(-0.776445 -0.630185 -0.630185 0.776445 170.774 149.989)" fill="black"/>
<path d="M131.826 282.663C131.554 282.327 131.605 281.834 131.941 281.562L186.185 237.536C186.521 237.263 187.014 237.314 187.286 237.65V237.65C187.559 237.986 187.508 238.479 187.172 238.751L132.927 282.778C132.592 283.05 132.099 282.999 131.826 282.663V282.663Z" fill="black"/>
<path d="M322.403 321.873C322.561 321.647 322.59 321.355 322.48 321.102L294.414 256.755C294.241 256.359 293.78 256.177 293.383 256.35V256.35C292.987 256.523 292.806 256.985 292.978 257.381L321.129 321.921C321.189 322.06 321.295 322.174 321.428 322.244V322.244C321.726 322.402 322.095 322.313 322.288 322.037L322.403 321.873Z" fill="black"/>
<path d="M349.73 41.1814V32.9564H352.03C352.704 32.9564 353.308 33.1108 353.843 33.4196C354.378 33.7247 354.794 34.1634 355.091 34.7358C355.393 35.3083 355.543 35.9598 355.543 36.6904V37.4474C355.543 38.1817 355.395 38.8333 355.097 39.4019C354.799 39.9706 354.38 40.4093 353.837 40.7181C353.299 41.027 352.679 41.1814 351.979 41.1814H349.73ZM350.425 33.5496V40.5939H351.984C352.851 40.5939 353.545 40.3077 354.069 39.7352C354.592 39.159 354.854 38.3813 354.854 37.4022V36.6791C354.854 35.7338 354.596 34.9769 354.08 34.4082C353.564 33.8395 352.884 33.5533 352.041 33.5496H350.425ZM361.486 41.1814C361.419 40.9893 361.375 40.705 361.356 40.3284C361.119 40.6372 360.816 40.8763 360.447 41.0458C360.082 41.2115 359.694 41.2943 359.283 41.2943C358.696 41.2943 358.219 41.1305 357.854 40.8029C357.493 40.4752 357.312 40.061 357.312 39.5601C357.312 38.9651 357.558 38.4943 358.052 38.1478C358.549 37.8014 359.24 37.6281 360.125 37.6281H361.351V36.9333C361.351 36.4965 361.215 36.1537 360.944 35.9052C360.677 35.6529 360.285 35.5267 359.769 35.5267C359.298 35.5267 358.909 35.6472 358.6 35.8882C358.291 36.1293 358.137 36.4193 358.137 36.7582L357.459 36.7525C357.459 36.2667 357.685 35.8468 358.137 35.4928C358.588 35.135 359.144 34.9562 359.803 34.9562C360.485 34.9562 361.021 35.1275 361.413 35.4702C361.808 35.8092 362.012 36.2837 362.023 36.8938V39.7861C362.023 40.3773 362.085 40.8198 362.209 41.1136V41.1814H361.486ZM359.362 40.6956C359.814 40.6956 360.217 40.5863 360.571 40.3679C360.929 40.1495 361.189 39.8576 361.351 39.4923V38.1478H360.142C359.468 38.1554 358.941 38.2797 358.56 38.5207C358.18 38.7579 357.99 39.0856 357.99 39.5036C357.99 39.8463 358.116 40.1307 358.368 40.3566C358.624 40.5826 358.956 40.6956 359.362 40.6956ZM366.153 40.2097L367.938 35.0691H368.667L366.057 42.2208L365.921 42.5371C365.586 43.279 365.068 43.65 364.368 43.65C364.206 43.65 364.033 43.6236 363.848 43.5709L363.842 43.0116L364.193 43.0455C364.524 43.0455 364.791 42.9627 364.995 42.797C365.202 42.635 365.377 42.3545 365.52 41.9553L365.82 41.1305L363.515 35.0691H364.255L366.153 40.2097ZM371.243 33.5044V35.0691H372.508V35.6227H371.243V39.6957C371.243 40.0346 371.303 40.2869 371.424 40.4526C371.548 40.6183 371.753 40.7012 372.039 40.7012C372.152 40.7012 372.335 40.6824 372.587 40.6447L372.616 41.1983C372.439 41.2623 372.198 41.2943 371.893 41.2943C371.429 41.2943 371.092 41.1607 370.881 40.8933C370.67 40.6221 370.565 40.2248 370.565 39.7013V35.6227H369.441V35.0691H370.565V33.5044H371.243ZM375.141 41.1814H374.463V35.0691H375.141V41.1814ZM374.345 33.301C374.345 33.173 374.386 33.0656 374.469 32.979C374.552 32.8886 374.665 32.8434 374.808 32.8434C374.951 32.8434 375.064 32.8886 375.147 32.979C375.233 33.0656 375.277 33.173 375.277 33.301C375.277 33.429 375.233 33.5364 375.147 33.623C375.064 33.7096 374.951 33.7529 374.808 33.7529C374.665 33.7529 374.552 33.7096 374.469 33.623C374.386 33.5364 374.345 33.429 374.345 33.301ZM378.073 35.0691L378.096 36.0634C378.322 35.6943 378.604 35.4175 378.943 35.233C379.282 35.0484 379.659 34.9562 380.073 34.9562C381.037 34.9562 381.649 35.3516 381.909 36.1425C382.127 35.7621 382.419 35.4702 382.785 35.2669C383.15 35.0597 383.553 34.9562 383.993 34.9562C385.304 34.9562 385.972 35.6717 385.999 37.1028V41.1814H385.321V37.1536C385.317 36.6076 385.199 36.2027 384.965 35.9391C384.735 35.6755 384.359 35.5437 383.835 35.5437C383.349 35.5512 382.939 35.7094 382.604 36.0182C382.269 36.3232 382.082 36.6961 382.045 37.1367V41.1814H381.367V37.1028C381.363 36.5793 381.239 36.1895 380.994 35.9334C380.753 35.6736 380.38 35.5437 379.875 35.5437C379.45 35.5437 379.084 35.6661 378.779 35.9108C378.474 36.1519 378.248 36.5115 378.102 36.9898V41.1814H377.424V35.0691H378.073ZM390.558 41.2943C390.038 41.2943 389.567 41.1663 389.146 40.9102C388.728 40.6541 388.402 40.2982 388.168 39.8426C387.935 39.3831 387.818 38.869 387.818 38.3004V38.0575C387.818 37.47 387.931 36.9408 388.157 36.4701C388.387 35.9993 388.705 35.6303 389.112 35.3629C389.519 35.0917 389.959 34.9562 390.434 34.9562C391.176 34.9562 391.763 35.2104 392.196 35.7188C392.633 36.2234 392.851 36.9145 392.851 37.792V38.1704H388.49V38.3004C388.49 38.9933 388.688 39.5714 389.084 40.0346C389.483 40.4941 389.984 40.7238 390.586 40.7238C390.948 40.7238 391.266 40.6579 391.541 40.5261C391.82 40.3943 392.072 40.1834 392.298 39.8934L392.721 40.2154C392.224 40.9347 391.503 41.2943 390.558 41.2943ZM390.434 35.5324C389.925 35.5324 389.496 35.7188 389.146 36.0916C388.799 36.4644 388.588 36.9653 388.513 37.5942H392.179V37.5208C392.16 36.9333 391.993 36.455 391.676 36.086C391.36 35.7169 390.946 35.5324 390.434 35.5324ZM398.659 35.0691V41.9101C398.659 42.475 398.524 42.9062 398.253 43.2037C397.981 43.5012 397.582 43.65 397.055 43.65C396.852 43.65 396.654 43.6142 396.462 43.5427L396.473 42.9834C396.639 43.0324 396.808 43.0568 396.982 43.0568C397.652 43.0568 397.987 42.6708 397.987 41.8988V35.0691H398.659ZM398.326 32.8434C398.473 32.8434 398.588 32.8886 398.671 32.979C398.753 33.0656 398.795 33.173 398.795 33.301C398.795 33.429 398.753 33.5364 398.671 33.623C398.588 33.7096 398.473 33.7529 398.326 33.7529C398.183 33.7529 398.07 33.7096 397.987 33.623C397.908 33.5364 397.868 33.429 397.868 33.301C397.868 33.173 397.908 33.0656 397.987 32.979C398.07 32.8886 398.183 32.8434 398.326 32.8434ZM400.676 38.0349C400.676 37.4474 400.789 36.9182 401.015 36.4475C401.245 35.9767 401.567 35.6114 401.981 35.3516C402.399 35.088 402.872 34.9562 403.399 34.9562C404.213 34.9562 404.872 35.2424 405.376 35.8148C405.881 36.3835 406.133 37.1386 406.133 38.0801V38.2213C406.133 38.8125 406.018 39.3454 405.789 39.82C405.563 40.2907 405.243 40.6541 404.828 40.9102C404.414 41.1663 403.941 41.2943 403.41 41.2943C402.601 41.2943 401.942 41.01 401.433 40.4413C400.929 39.8689 400.676 39.1119 400.676 38.1704V38.0349ZM401.354 38.2213C401.354 38.9519 401.543 39.5526 401.919 40.0233C402.3 40.4903 402.797 40.7238 403.41 40.7238C404.021 40.7238 404.514 40.4903 404.891 40.0233C405.271 39.5526 405.461 38.9331 405.461 38.1648V38.0349C405.461 37.5679 405.374 37.1404 405.201 36.7525C405.028 36.3646 404.785 36.0652 404.472 35.8544C404.16 35.6397 403.802 35.5324 403.399 35.5324C402.797 35.5324 402.305 35.7696 401.925 36.2441C401.544 36.7149 401.354 37.3325 401.354 38.097V38.2213ZM412.929 38.1874C412.929 39.1402 412.719 39.8972 412.297 40.4583C411.875 41.0157 411.308 41.2943 410.596 41.2943C409.745 41.2943 409.101 40.978 408.664 40.3453L408.636 41.1814H408.003V32.5045H408.676V35.956C409.105 35.2894 409.741 34.9562 410.585 34.9562C411.308 34.9562 411.879 35.233 412.297 35.7866C412.719 36.3364 412.929 37.1028 412.929 38.0857V38.1874ZM412.252 38.0688C412.252 37.2628 412.095 36.6414 411.783 36.2046C411.47 35.764 411.029 35.5437 410.461 35.5437C410.028 35.5437 409.661 35.651 409.359 35.8656C409.058 36.0765 408.83 36.3872 408.676 36.7977V39.5545C409.015 40.3227 409.613 40.7068 410.472 40.7068C411.029 40.7068 411.464 40.4865 411.777 40.0459C412.093 39.6053 412.252 38.9462 412.252 38.0688Z" fill="black"/>
<path d="M49.8425 108.043H49.142V104.1H44.442V108.043H43.7472V99.8183H44.442V103.513H49.142V99.8183H49.8425V108.043ZM51.8821 104.897C51.8821 104.309 51.9951 103.78 52.2211 103.309C52.4508 102.839 52.7728 102.473 53.1871 102.213C53.6051 101.95 54.0777 101.818 54.605 101.818C55.4184 101.818 56.0775 102.104 56.5821 102.677C57.0868 103.245 57.3391 104 57.3391 104.942V105.083C57.3391 105.674 57.2242 106.207 56.9945 106.682C56.7685 107.153 56.4484 107.516 56.0342 107.772C55.6199 108.028 55.1473 108.156 54.6163 108.156C53.8066 108.156 53.1475 107.872 52.6391 107.303C52.1345 106.731 51.8821 105.974 51.8821 105.032V104.897ZM52.56 105.083C52.56 105.814 52.7483 106.414 53.1249 106.885C53.5053 107.352 54.0024 107.586 54.6163 107.586C55.2263 107.586 55.7197 107.352 56.0963 106.885C56.4767 106.414 56.6668 105.795 56.6668 105.027V104.897C56.6668 104.43 56.5802 104.002 56.407 103.614C56.2338 103.227 55.9908 102.927 55.6783 102.716C55.3657 102.502 55.0079 102.394 54.605 102.394C54.0024 102.394 53.5109 102.632 53.1306 103.106C52.7502 103.577 52.56 104.194 52.56 104.959V105.083ZM64.1295 105.049C64.1295 106.002 63.9186 106.759 63.4968 107.32C63.0751 107.878 62.5102 108.156 61.8021 108.156C60.9661 108.156 60.3259 107.863 59.8815 107.275V110.393H59.2092V101.931H59.8363L59.8702 102.795C60.3108 102.144 60.9491 101.818 61.7852 101.818C62.5158 101.818 63.0882 102.095 63.5025 102.648C63.9205 103.202 64.1295 103.97 64.1295 104.953V105.049ZM63.4517 104.931C63.4517 104.151 63.2916 103.535 62.9715 103.083C62.6514 102.632 62.2051 102.406 61.6327 102.406C61.2184 102.406 60.8625 102.505 60.565 102.705C60.2675 102.905 60.0397 103.195 59.8815 103.575V106.507C60.0434 106.857 60.275 107.124 60.5763 107.309C60.8776 107.493 61.2335 107.586 61.644 107.586C62.2126 107.586 62.6551 107.36 62.9715 106.908C63.2916 106.452 63.4517 105.793 63.4517 104.931ZM68.474 108.156C67.9543 108.156 67.4835 108.028 67.0617 107.772C66.6437 107.516 66.3179 107.16 66.0844 106.704C65.8509 106.245 65.7342 105.731 65.7342 105.162V104.919C65.7342 104.332 65.8472 103.803 66.0731 103.332C66.3029 102.861 66.6211 102.492 67.0278 102.225C67.4346 101.954 67.8752 101.818 68.3497 101.818C69.0916 101.818 69.6791 102.072 70.1122 102.581C70.549 103.085 70.7675 103.776 70.7675 104.654V105.032H66.4064V105.162C66.4064 105.855 66.6042 106.433 66.9996 106.897C67.3988 107.356 67.8997 107.586 68.5022 107.586C68.8638 107.586 69.182 107.52 69.4569 107.388C69.7356 107.256 69.9879 107.045 70.2139 106.755L70.6375 107.077C70.1404 107.797 69.4192 108.156 68.474 108.156ZM68.3497 102.394C67.8413 102.394 67.412 102.581 67.0617 102.954C66.7152 103.326 66.5044 103.827 66.429 104.456H70.0952V104.383C70.0764 103.795 69.9088 103.317 69.5925 102.948C69.2761 102.579 68.8619 102.394 68.3497 102.394ZM73.0444 108.043V102.485H72.0332V101.931H73.0444V101.191C73.0444 100.566 73.2025 100.086 73.5189 99.7505C73.839 99.4154 74.2834 99.2478 74.8521 99.2478C75.1081 99.2478 75.3473 99.2798 75.5695 99.3438L75.5186 99.9087C75.3303 99.8635 75.1251 99.8409 74.9029 99.8409C74.5301 99.8409 74.2401 99.9577 74.033 100.191C73.8258 100.421 73.7223 100.749 73.7223 101.174V101.931H75.1797V102.485H73.7223V108.043H73.0444ZM80.7952 107.269C80.3884 107.861 79.7388 108.156 78.8463 108.156C78.1947 108.156 77.6995 107.968 77.3606 107.591C77.0216 107.211 76.8484 106.65 76.8409 105.908V101.931H77.5131V105.823C77.5131 106.987 77.9838 107.569 78.9253 107.569C79.9045 107.569 80.524 107.164 80.7839 106.354V101.931H81.4617V108.043H80.8065L80.7952 107.269ZM84.4561 108.043H83.7782V99.3664H84.4561V108.043ZM90.7046 101.931L90.7272 102.976C90.9569 102.6 91.2431 102.313 91.5858 102.117C91.9285 101.918 92.307 101.818 92.7213 101.818C93.3766 101.818 93.8643 102.003 94.1844 102.372C94.5045 102.741 94.6664 103.294 94.6702 104.032V108.043H93.998V104.027C93.9942 103.481 93.8774 103.074 93.6477 102.807C93.4218 102.539 93.0583 102.406 92.5575 102.406C92.1394 102.406 91.7685 102.537 91.4446 102.801C91.1245 103.061 90.8872 103.413 90.7328 103.857V108.043H90.0606V101.931H90.7046ZM96.5234 104.897C96.5234 104.309 96.6364 103.78 96.8624 103.309C97.0921 102.839 97.4141 102.473 97.8283 102.213C98.2464 101.95 98.719 101.818 99.2462 101.818C100.06 101.818 100.719 102.104 101.223 102.677C101.728 103.245 101.98 104 101.98 104.942V105.083C101.98 105.674 101.865 106.207 101.636 106.682C101.41 107.153 101.09 107.516 100.675 107.772C100.261 108.028 99.7885 108.156 99.2575 108.156C98.4478 108.156 97.7888 107.872 97.2804 107.303C96.7757 106.731 96.5234 105.974 96.5234 105.032V104.897ZM97.2013 105.083C97.2013 105.814 97.3896 106.414 97.7662 106.885C98.1466 107.352 98.6437 107.586 99.2575 107.586C99.8676 107.586 100.361 107.352 100.738 106.885C101.118 106.414 101.308 105.795 101.308 105.027V104.897C101.308 104.43 101.222 104.002 101.048 103.614C100.875 103.227 100.632 102.927 100.32 102.716C100.007 102.502 99.6492 102.394 99.2462 102.394C98.6437 102.394 98.1522 102.632 97.7718 103.106C97.3915 103.577 97.2013 104.194 97.2013 104.959V105.083ZM105.67 107.111L107.528 101.931H108.223L105.941 108.043H105.393L103.099 101.931H103.794L105.67 107.111ZM112.098 108.156C111.579 108.156 111.108 108.028 110.686 107.772C110.268 107.516 109.942 107.16 109.709 106.704C109.475 106.245 109.359 105.731 109.359 105.162V104.919C109.359 104.332 109.472 103.803 109.698 103.332C109.927 102.861 110.246 102.492 110.652 102.225C111.059 101.954 111.5 101.818 111.974 101.818C112.716 101.818 113.304 102.072 113.737 102.581C114.173 103.085 114.392 103.776 114.392 104.654V105.032H110.031V105.162C110.031 105.855 110.229 106.433 110.624 106.897C111.023 107.356 111.524 107.586 112.127 107.586C112.488 107.586 112.806 107.52 113.081 107.388C113.36 107.256 113.612 107.045 113.838 106.755L114.262 107.077C113.765 107.797 113.044 108.156 112.098 108.156ZM111.974 102.394C111.466 102.394 111.036 102.581 110.686 102.954C110.34 103.326 110.129 103.827 110.053 104.456H113.72V104.383C113.701 103.795 113.533 103.317 113.217 102.948C112.901 102.579 112.486 102.394 111.974 102.394ZM116.94 108.043H116.262V99.3664H116.94V108.043ZM120.013 108.043H119.336V101.931H120.013V108.043ZM119.217 100.163C119.217 100.035 119.258 99.9275 119.341 99.8409C119.424 99.7505 119.537 99.7053 119.68 99.7053C119.823 99.7053 119.936 99.7505 120.019 99.8409C120.106 99.9275 120.149 100.035 120.149 100.163C120.149 100.291 120.106 100.398 120.019 100.485C119.936 100.572 119.823 100.615 119.68 100.615C119.537 100.615 119.424 100.572 119.341 100.485C119.258 100.398 119.217 100.291 119.217 100.163ZM125.99 106.49C125.99 106.155 125.855 105.885 125.584 105.682C125.316 105.479 124.911 105.32 124.369 105.207C123.827 105.091 123.405 104.959 123.104 104.812C122.806 104.661 122.584 104.479 122.437 104.264C122.294 104.049 122.223 103.79 122.223 103.485C122.223 103.002 122.424 102.605 122.827 102.293C123.23 101.976 123.746 101.818 124.375 101.818C125.056 101.818 125.602 101.988 126.013 102.326C126.427 102.662 126.634 103.1 126.634 103.643H125.957C125.957 103.285 125.806 102.987 125.505 102.75C125.207 102.513 124.83 102.394 124.375 102.394C123.93 102.394 123.573 102.494 123.301 102.694C123.034 102.889 122.9 103.146 122.9 103.462C122.9 103.767 123.011 104.004 123.234 104.174C123.46 104.339 123.868 104.492 124.46 104.631C125.055 104.771 125.499 104.919 125.793 105.078C126.09 105.236 126.311 105.426 126.454 105.648C126.597 105.87 126.668 106.14 126.668 106.456C126.668 106.972 126.459 107.384 126.041 107.693C125.627 108.002 125.085 108.156 124.414 108.156C123.703 108.156 123.124 107.985 122.68 107.642C122.239 107.296 122.019 106.859 122.019 106.332H122.697C122.723 106.727 122.889 107.036 123.194 107.258C123.503 107.476 123.91 107.586 124.414 107.586C124.885 107.586 125.265 107.482 125.555 107.275C125.845 107.068 125.99 106.806 125.99 106.49ZM129.719 100.366V101.931H130.984V102.485H129.719V106.558C129.719 106.897 129.779 107.149 129.9 107.315C130.024 107.48 130.229 107.563 130.516 107.563C130.629 107.563 130.811 107.544 131.064 107.507L131.092 108.06C130.915 108.124 130.674 108.156 130.369 108.156C129.906 108.156 129.568 108.023 129.358 107.755C129.147 107.484 129.041 107.087 129.041 106.563V102.485H127.917V101.931H129.041V100.366H129.719ZM72.8355 118.049C72.8355 119.002 72.6246 119.759 72.2028 120.32C71.7811 120.878 71.2143 121.156 70.5025 121.156C69.6514 121.156 69.0074 120.84 68.5705 120.207L68.5423 121.043H67.9096V112.366H68.5818V115.818C69.0112 115.151 69.6476 114.818 70.4912 114.818C71.2143 114.818 71.7848 115.095 72.2028 115.648C72.6246 116.198 72.8355 116.965 72.8355 117.948V118.049ZM72.1577 117.931C72.1577 117.125 72.0014 116.503 71.6888 116.066C71.3762 115.626 70.9356 115.406 70.3669 115.406C69.9338 115.406 69.5666 115.513 69.2654 115.728C68.9641 115.938 68.7362 116.249 68.5818 116.66V119.416C68.9208 120.185 69.5196 120.569 70.3782 120.569C70.9356 120.569 71.3706 120.348 71.6831 119.908C71.9995 119.467 72.1577 118.808 72.1577 117.931ZM76.6772 120.072L78.4623 114.931H79.191L76.5812 122.083L76.4456 122.399C76.1104 123.141 75.5926 123.512 74.8921 123.512C74.7302 123.512 74.557 123.486 74.3724 123.433L74.3668 122.874L74.717 122.907C75.0484 122.907 75.3158 122.825 75.5192 122.659C75.7263 122.497 75.9014 122.216 76.0445 121.817L76.3439 120.992L74.0391 114.931H74.7791L76.6772 120.072ZM84.6487 114.931L84.6713 115.976C84.901 115.6 85.1872 115.313 85.5299 115.117C85.8726 114.918 86.2511 114.818 86.6654 114.818C87.3206 114.818 87.8083 115.003 88.1285 115.372C88.4486 115.741 88.6105 116.294 88.6143 117.032V121.043H87.942V117.027C87.9383 116.481 87.8215 116.074 87.5918 115.807C87.3658 115.539 87.0024 115.406 86.5015 115.406C86.0835 115.406 85.7126 115.537 85.3887 115.801C85.0686 116.061 84.8313 116.413 84.6769 116.857V121.043H84.0047V114.931H84.6487ZM91.5973 121.043H90.9194V114.931H91.5973V121.043ZM90.8008 113.163C90.8008 113.035 90.8422 112.928 90.9251 112.841C91.0079 112.751 91.1209 112.705 91.264 112.705C91.4071 112.705 91.5201 112.751 91.603 112.841C91.6896 112.928 91.7329 113.035 91.7329 113.163C91.7329 113.291 91.6896 113.398 91.603 113.485C91.5201 113.572 91.4071 113.615 91.264 113.615C91.1209 113.615 91.0079 113.572 90.9251 113.485C90.8422 113.398 90.8008 113.291 90.8008 113.163ZM93.6426 117.931C93.6426 116.974 93.8535 116.217 94.2753 115.66C94.7008 115.099 95.277 114.818 96.0039 114.818C96.8362 114.818 97.4689 115.149 97.9019 115.812L97.9358 114.931H98.5685V120.919C98.5685 121.706 98.3482 122.329 97.9076 122.789C97.467 123.248 96.8701 123.478 96.1169 123.478C95.6913 123.478 95.2846 123.382 94.8967 123.19C94.5125 123.002 94.2094 122.749 93.9872 122.433L94.3657 122.026C94.844 122.614 95.4126 122.907 96.0717 122.907C96.6366 122.907 97.0772 122.74 97.3935 122.405C97.7099 122.073 97.8737 121.612 97.885 121.021V120.252C97.4519 120.855 96.8211 121.156 95.9926 121.156C95.2846 121.156 94.7159 120.874 94.2866 120.309C93.8573 119.744 93.6426 118.981 93.6426 118.021V117.931ZM94.3261 118.049C94.3261 118.829 94.4824 119.445 94.795 119.897C95.1076 120.345 95.5482 120.569 96.1169 120.569C96.9491 120.569 97.5385 120.196 97.885 119.45V116.609C97.7268 116.217 97.499 115.92 97.2015 115.716C96.904 115.509 96.5462 115.406 96.1282 115.406C95.5595 115.406 95.117 115.63 94.8006 116.078C94.4843 116.522 94.3261 117.179 94.3261 118.049ZM101.478 115.965C101.7 115.6 101.985 115.317 102.331 115.117C102.678 114.918 103.056 114.818 103.467 114.818C104.122 114.818 104.61 115.003 104.93 115.372C105.25 115.741 105.412 116.294 105.415 117.032V121.043H104.743V117.027C104.739 116.481 104.623 116.074 104.393 115.807C104.167 115.539 103.804 115.406 103.303 115.406C102.885 115.406 102.514 115.537 102.19 115.801C101.87 116.061 101.633 116.413 101.478 116.857V121.043H100.806V112.366H101.478V115.965ZM108.681 113.366V114.931H109.946V115.485H108.681V119.558C108.681 119.897 108.741 120.149 108.862 120.315C108.986 120.48 109.191 120.563 109.477 120.563C109.59 120.563 109.773 120.544 110.025 120.507L110.054 121.06C109.877 121.124 109.636 121.156 109.331 121.156C108.867 121.156 108.53 121.023 108.319 120.755C108.109 120.484 108.003 120.087 108.003 119.563V115.485H106.879V114.931H108.003V113.366H108.681Z" fill="black"/>
<path d="M401.334 177.788C401.334 177.332 401.174 176.973 400.854 176.709C400.534 176.442 399.948 176.189 399.097 175.952C398.246 175.711 397.625 175.449 397.233 175.167C396.676 174.768 396.397 174.244 396.397 173.597C396.397 172.968 396.655 172.457 397.171 172.066C397.691 171.67 398.353 171.473 399.159 171.473C399.705 171.473 400.193 171.578 400.622 171.789C401.056 172 401.391 172.294 401.628 172.67C401.865 173.047 401.984 173.467 401.984 173.93H401.283C401.283 173.369 401.091 172.919 400.707 172.58C400.323 172.237 399.807 172.066 399.159 172.066C398.53 172.066 398.03 172.207 397.657 172.489C397.284 172.768 397.097 173.133 397.097 173.585C397.097 174.003 397.265 174.344 397.6 174.608C397.935 174.871 398.472 175.105 399.21 175.308C399.948 175.508 400.508 175.717 400.888 175.935C401.268 176.15 401.555 176.408 401.747 176.709C401.939 177.01 402.035 177.366 402.035 177.777C402.035 178.425 401.775 178.944 401.255 179.336C400.739 179.728 400.058 179.923 399.21 179.923C398.63 179.923 398.097 179.82 397.612 179.613C397.129 179.406 396.762 179.116 396.51 178.743C396.261 178.37 396.137 177.943 396.137 177.46H396.832C396.832 178.04 397.048 178.498 397.482 178.833C397.915 179.168 398.491 179.336 399.21 179.336C399.85 179.336 400.364 179.195 400.752 178.912C401.14 178.63 401.334 178.255 401.334 177.788ZM408.769 176.817C408.769 177.769 408.558 178.526 408.136 179.087C407.714 179.645 407.149 179.923 406.441 179.923C405.605 179.923 404.965 179.63 404.521 179.042V182.16H403.848V173.698H404.475L404.509 174.563C404.95 173.911 405.588 173.585 406.424 173.585C407.155 173.585 407.727 173.862 408.142 174.416C408.56 174.969 408.769 175.738 408.769 176.72V176.817ZM408.091 176.698C408.091 175.918 407.931 175.303 407.611 174.851C407.29 174.399 406.844 174.173 406.272 174.173C405.858 174.173 405.502 174.273 405.204 174.472C404.907 174.672 404.679 174.962 404.521 175.342V178.274C404.683 178.624 404.914 178.892 405.215 179.076C405.517 179.261 405.873 179.353 406.283 179.353C406.852 179.353 407.294 179.127 407.611 178.675C407.931 178.219 408.091 177.56 408.091 176.698ZM410.373 176.664C410.373 176.076 410.486 175.547 410.712 175.077C410.942 174.606 411.264 174.241 411.678 173.981C412.096 173.717 412.569 173.585 413.096 173.585C413.91 173.585 414.569 173.871 415.073 174.444C415.578 175.013 415.83 175.768 415.83 176.709V176.85C415.83 177.442 415.715 177.975 415.486 178.449C415.26 178.92 414.94 179.283 414.525 179.539C414.111 179.795 413.638 179.923 413.107 179.923C412.298 179.923 411.639 179.639 411.13 179.07C410.626 178.498 410.373 177.741 410.373 176.8V176.664ZM411.051 176.85C411.051 177.581 411.239 178.182 411.616 178.652C411.996 179.119 412.494 179.353 413.107 179.353C413.718 179.353 414.211 179.119 414.587 178.652C414.968 178.182 415.158 177.562 415.158 176.794V176.664C415.158 176.197 415.071 175.77 414.898 175.382C414.725 174.994 414.482 174.694 414.169 174.483C413.857 174.269 413.499 174.161 413.096 174.161C412.494 174.161 412.002 174.399 411.622 174.873C411.241 175.344 411.051 175.962 411.051 176.726V176.85ZM420.531 174.274C420.387 174.248 420.235 174.235 420.073 174.235C419.651 174.235 419.293 174.354 419 174.591C418.71 174.824 418.503 175.165 418.378 175.613V179.81H417.706V173.698H418.367L418.378 174.67C418.736 173.947 419.31 173.585 420.101 173.585C420.29 173.585 420.438 173.61 420.548 173.659L420.531 174.274ZM423.412 172.133V173.698H424.677V174.252H423.412V178.325C423.412 178.664 423.472 178.916 423.593 179.082C423.717 179.247 423.922 179.33 424.208 179.33C424.321 179.33 424.504 179.311 424.756 179.274L424.785 179.827C424.608 179.891 424.367 179.923 424.062 179.923C423.598 179.923 423.261 179.79 423.05 179.522C422.84 179.251 422.734 178.854 422.734 178.33V174.252H421.61V173.698H422.734V172.133H423.412ZM430.214 178.257C430.214 177.922 430.078 177.653 429.807 177.449C429.54 177.246 429.135 177.088 428.592 176.975C428.05 176.858 427.628 176.726 427.327 176.579C427.03 176.429 426.807 176.246 426.66 176.031C426.517 175.817 426.446 175.557 426.446 175.252C426.446 174.77 426.647 174.372 427.05 174.06C427.453 173.743 427.969 173.585 428.598 173.585C429.28 173.585 429.826 173.755 430.236 174.094C430.651 174.429 430.858 174.868 430.858 175.41H430.18C430.18 175.052 430.029 174.755 429.728 174.517C429.43 174.28 429.054 174.161 428.598 174.161C428.154 174.161 427.796 174.261 427.525 174.461C427.257 174.657 427.124 174.913 427.124 175.229C427.124 175.534 427.235 175.771 427.457 175.941C427.683 176.107 428.092 176.259 428.683 176.398C429.278 176.538 429.722 176.687 430.016 176.845C430.313 177.003 430.534 177.193 430.677 177.415C430.82 177.638 430.892 177.907 430.892 178.223C430.892 178.739 430.683 179.151 430.265 179.46C429.85 179.769 429.308 179.923 428.638 179.923C427.926 179.923 427.348 179.752 426.903 179.409C426.463 179.063 426.242 178.626 426.242 178.099H426.92C426.947 178.494 427.112 178.803 427.417 179.025C427.726 179.244 428.133 179.353 428.638 179.353C429.108 179.353 429.489 179.249 429.779 179.042C430.069 178.835 430.214 178.573 430.214 178.257ZM440.038 179.81C439.97 179.618 439.927 179.334 439.908 178.957C439.671 179.266 439.368 179.505 438.999 179.675C438.633 179.841 438.245 179.923 437.835 179.923C437.247 179.923 436.771 179.76 436.406 179.432C436.044 179.104 435.863 178.69 435.863 178.189C435.863 177.594 436.11 177.123 436.603 176.777C437.101 176.43 437.792 176.257 438.677 176.257H439.902V175.562C439.902 175.126 439.767 174.783 439.496 174.534C439.228 174.282 438.837 174.156 438.321 174.156C437.85 174.156 437.46 174.276 437.151 174.517C436.843 174.758 436.688 175.048 436.688 175.387L436.01 175.382C436.01 174.896 436.236 174.476 436.688 174.122C437.14 173.764 437.696 173.585 438.355 173.585C439.036 173.585 439.573 173.757 439.965 174.099C440.36 174.438 440.563 174.913 440.575 175.523V178.415C440.575 179.006 440.637 179.449 440.761 179.743V179.81H440.038ZM437.914 179.325C438.366 179.325 438.769 179.215 439.123 178.997C439.481 178.779 439.741 178.487 439.902 178.121V176.777H438.694C438.019 176.785 437.492 176.909 437.112 177.15C436.731 177.387 436.541 177.715 436.541 178.133C436.541 178.475 436.667 178.76 436.92 178.986C437.176 179.212 437.507 179.325 437.914 179.325ZM443.501 173.698L443.524 174.743C443.754 174.367 444.04 174.081 444.382 173.885C444.725 173.685 445.104 173.585 445.518 173.585C446.173 173.585 446.661 173.77 446.981 174.139C447.301 174.508 447.463 175.062 447.467 175.8V179.81H446.795V175.794C446.791 175.248 446.674 174.841 446.444 174.574C446.218 174.306 445.855 174.173 445.354 174.173C444.936 174.173 444.565 174.305 444.241 174.568C443.921 174.828 443.684 175.18 443.529 175.625V179.81H442.857V173.698H443.501ZM449.422 176.698C449.422 175.749 449.633 174.994 450.054 174.433C450.48 173.868 451.056 173.585 451.783 173.585C452.608 173.585 453.237 173.911 453.67 174.563V171.134H454.342V179.81H453.709L453.681 178.997C453.248 179.615 452.612 179.923 451.772 179.923C451.067 179.923 450.499 179.641 450.066 179.076C449.636 178.507 449.422 177.741 449.422 176.777V176.698ZM450.105 176.817C450.105 177.596 450.262 178.212 450.574 178.664C450.887 179.112 451.327 179.336 451.896 179.336C452.728 179.336 453.32 178.969 453.67 178.234V175.365C453.32 174.57 452.732 174.173 451.907 174.173C451.339 174.173 450.896 174.397 450.58 174.845C450.263 175.289 450.105 175.947 450.105 176.817ZM404.034 187.274C403.891 187.248 403.739 187.235 403.577 187.235C403.155 187.235 402.797 187.354 402.504 187.591C402.214 187.824 402.006 188.165 401.882 188.613V192.81H401.21V186.698H401.871L401.882 187.67C402.24 186.947 402.814 186.585 403.605 186.585C403.793 186.585 403.942 186.61 404.051 186.659L404.034 187.274ZM407.837 192.923C407.317 192.923 406.846 192.795 406.424 192.539C406.006 192.283 405.681 191.927 405.447 191.472C405.214 191.012 405.097 190.498 405.097 189.929V189.687C405.097 189.099 405.21 188.57 405.436 188.099C405.665 187.628 405.984 187.259 406.39 186.992C406.797 186.721 407.238 186.585 407.712 186.585C408.454 186.585 409.042 186.839 409.475 187.348C409.912 187.853 410.13 188.544 410.13 189.421V189.8H405.769V189.929C405.769 190.622 405.967 191.201 406.362 191.664C406.761 192.123 407.262 192.353 407.865 192.353C408.226 192.353 408.545 192.287 408.819 192.155C409.098 192.023 409.35 191.812 409.576 191.523L410 191.845C409.503 192.564 408.782 192.923 407.837 192.923ZM407.712 187.161C407.204 187.161 406.775 187.348 406.424 187.721C406.078 188.094 405.867 188.594 405.792 189.223H409.458V189.15C409.439 188.562 409.271 188.084 408.955 187.715C408.639 187.346 408.224 187.161 407.712 187.161ZM412.678 192.81H412V184.134H412.678V192.81ZM418.853 192.81C418.785 192.618 418.742 192.334 418.723 191.957C418.486 192.266 418.182 192.505 417.813 192.675C417.448 192.841 417.06 192.923 416.65 192.923C416.062 192.923 415.586 192.76 415.221 192.432C414.859 192.104 414.678 191.69 414.678 191.189C414.678 190.594 414.925 190.123 415.418 189.777C415.915 189.43 416.606 189.257 417.491 189.257H418.717V188.562C418.717 188.126 418.582 187.783 418.311 187.534C418.043 187.282 417.651 187.156 417.136 187.156C416.665 187.156 416.275 187.276 415.966 187.517C415.657 187.758 415.503 188.048 415.503 188.387L414.825 188.382C414.825 187.896 415.051 187.476 415.503 187.122C415.955 186.764 416.51 186.585 417.169 186.585C417.851 186.585 418.388 186.757 418.779 187.099C419.175 187.438 419.378 187.913 419.389 188.523V191.415C419.389 192.006 419.452 192.449 419.576 192.743V192.81H418.853ZM416.729 192.325C417.181 192.325 417.584 192.215 417.938 191.997C418.295 191.779 418.555 191.487 418.717 191.121V189.777H417.508C416.834 189.785 416.307 189.909 415.927 190.15C415.546 190.387 415.356 190.715 415.356 191.133C415.356 191.475 415.482 191.76 415.735 191.986C415.991 192.212 416.322 192.325 416.729 192.325ZM423.593 189.178L425.242 186.698H426.044L423.971 189.698L426.135 192.81H425.338L423.598 190.223L421.858 192.81H421.062L423.22 189.698L421.147 186.698H421.943L423.593 189.178ZM428.53 192.81H427.852V186.698H428.53V192.81ZM427.734 184.93C427.734 184.802 427.775 184.695 427.858 184.608C427.941 184.518 428.054 184.473 428.197 184.473C428.34 184.473 428.453 184.518 428.536 184.608C428.623 184.695 428.666 184.802 428.666 184.93C428.666 185.058 428.623 185.165 428.536 185.252C428.453 185.339 428.34 185.382 428.197 185.382C428.054 185.382 427.941 185.339 427.858 185.252C427.775 185.165 427.734 185.058 427.734 184.93ZM431.897 185.133V186.698H433.163V187.252H431.897V191.325C431.897 191.664 431.958 191.916 432.078 192.082C432.202 192.247 432.408 192.33 432.694 192.33C432.807 192.33 432.99 192.311 433.242 192.274L433.27 192.827C433.093 192.891 432.852 192.923 432.547 192.923C432.084 192.923 431.747 192.79 431.536 192.522C431.325 192.251 431.22 191.854 431.22 191.33V187.252H430.095V186.698H431.22V185.133H431.897ZM435.796 192.81H435.118V186.698H435.796V192.81ZM434.999 184.93C434.999 184.802 435.041 184.695 435.123 184.608C435.206 184.518 435.319 184.473 435.462 184.473C435.605 184.473 435.718 184.518 435.801 184.608C435.888 184.695 435.931 184.802 435.931 184.93C435.931 185.058 435.888 185.165 435.801 185.252C435.718 185.339 435.605 185.382 435.462 185.382C435.319 185.382 435.206 185.339 435.123 185.252C435.041 185.165 434.999 185.058 434.999 184.93ZM437.739 189.664C437.739 189.076 437.852 188.547 438.078 188.077C438.308 187.606 438.63 187.241 439.044 186.981C439.462 186.717 439.935 186.585 440.462 186.585C441.276 186.585 441.935 186.871 442.439 187.444C442.944 188.013 443.196 188.768 443.196 189.709V189.85C443.196 190.442 443.081 190.975 442.852 191.449C442.626 191.92 442.306 192.283 441.891 192.539C441.477 192.795 441.004 192.923 440.473 192.923C439.664 192.923 439.005 192.639 438.496 192.07C437.992 191.498 437.739 190.741 437.739 189.8V189.664ZM438.417 189.85C438.417 190.581 438.605 191.182 438.982 191.652C439.362 192.119 439.859 192.353 440.473 192.353C441.083 192.353 441.577 192.119 441.953 191.652C442.334 191.182 442.524 190.562 442.524 189.794V189.664C442.524 189.197 442.437 188.77 442.264 188.382C442.091 187.994 441.848 187.694 441.535 187.483C441.223 187.269 440.865 187.161 440.462 187.161C439.859 187.161 439.368 187.399 438.988 187.873C438.607 188.344 438.417 188.962 438.417 189.726V189.85ZM445.716 186.698L445.739 187.743C445.968 187.367 446.255 187.081 446.597 186.885C446.94 186.685 447.318 186.585 447.733 186.585C448.388 186.585 448.876 186.77 449.196 187.139C449.516 187.508 449.678 188.062 449.682 188.8V192.81H449.009V188.794C449.006 188.248 448.889 187.841 448.659 187.574C448.433 187.306 448.07 187.173 447.569 187.173C447.151 187.173 446.78 187.305 446.456 187.568C446.136 187.828 445.899 188.18 445.744 188.625V192.81H445.072V186.698H445.716Z" fill="black"/>
<path d="M356.467 313.92C356.467 313.464 356.307 313.104 355.987 312.841C355.667 312.573 355.081 312.321 354.23 312.084C353.379 311.843 352.758 311.581 352.366 311.299C351.809 310.899 351.53 310.376 351.53 309.728C351.53 309.099 351.788 308.589 352.304 308.197C352.824 307.802 353.486 307.604 354.292 307.604C354.838 307.604 355.326 307.71 355.755 307.921C356.188 308.131 356.524 308.425 356.761 308.802C356.998 309.178 357.117 309.598 357.117 310.062H356.416C356.416 309.5 356.224 309.05 355.84 308.711C355.456 308.369 354.94 308.197 354.292 308.197C353.663 308.197 353.163 308.339 352.79 308.621C352.417 308.9 352.23 309.265 352.23 309.717C352.23 310.135 352.398 310.476 352.733 310.739C353.068 311.003 353.605 311.237 354.343 311.44C355.081 311.639 355.641 311.848 356.021 312.067C356.401 312.282 356.687 312.54 356.88 312.841C357.072 313.142 357.168 313.498 357.168 313.908C357.168 314.556 356.908 315.076 356.388 315.468C355.872 315.859 355.191 316.055 354.343 316.055C353.763 316.055 353.23 315.952 352.744 315.744C352.262 315.537 351.895 315.247 351.643 314.874C351.394 314.502 351.27 314.074 351.27 313.592H351.965C351.965 314.172 352.181 314.63 352.615 314.965C353.048 315.3 353.624 315.468 354.343 315.468C354.983 315.468 355.497 315.326 355.885 315.044C356.273 314.761 356.467 314.387 356.467 313.92ZM363.902 312.948C363.902 313.901 363.691 314.658 363.269 315.219C362.847 315.776 362.282 316.055 361.574 316.055C360.738 316.055 360.098 315.761 359.654 315.174V318.292H358.981V309.83H359.608L359.642 310.694C360.083 310.043 360.721 309.717 361.557 309.717C362.288 309.717 362.86 309.994 363.275 310.547C363.693 311.101 363.902 311.869 363.902 312.852V312.948ZM363.224 312.83C363.224 312.05 363.064 311.434 362.744 310.982C362.423 310.53 361.977 310.304 361.405 310.304C360.991 310.304 360.635 310.404 360.337 310.604C360.04 310.803 359.812 311.093 359.654 311.474V314.406C359.816 314.756 360.047 315.023 360.348 315.208C360.65 315.392 361.006 315.485 361.416 315.485C361.985 315.485 362.427 315.259 362.744 314.807C363.064 314.351 363.224 313.692 363.224 312.83ZM368.246 316.055C367.726 316.055 367.256 315.927 366.834 315.671C366.416 315.415 366.09 315.059 365.857 314.603C365.623 314.144 365.506 313.63 365.506 313.061V312.818C365.506 312.231 365.619 311.702 365.845 311.231C366.075 310.76 366.393 310.391 366.8 310.124C367.207 309.853 367.647 309.717 368.122 309.717C368.864 309.717 369.451 309.971 369.884 310.48C370.321 310.984 370.54 311.675 370.54 312.553V312.931H366.179V313.061C366.179 313.754 366.376 314.332 366.772 314.795C367.171 315.255 367.672 315.485 368.274 315.485C368.636 315.485 368.954 315.419 369.229 315.287C369.508 315.155 369.76 314.944 369.986 314.654L370.41 314.976C369.913 315.695 369.191 316.055 368.246 316.055ZM368.122 310.293C367.613 310.293 367.184 310.48 366.834 310.852C366.487 311.225 366.276 311.726 366.201 312.355H369.867V312.282C369.849 311.694 369.681 311.216 369.365 310.847C369.048 310.478 368.634 310.293 368.122 310.293ZM372.975 309.83L372.997 310.875C373.227 310.498 373.513 310.212 373.856 310.016C374.199 309.817 374.577 309.717 374.991 309.717C375.647 309.717 376.134 309.901 376.454 310.271C376.775 310.64 376.936 311.193 376.94 311.931V315.942H376.268V311.926C376.264 311.38 376.147 310.973 375.918 310.706C375.692 310.438 375.328 310.304 374.828 310.304C374.409 310.304 374.039 310.436 373.715 310.7C373.395 310.96 373.157 311.312 373.003 311.756V315.942H372.331V309.83H372.975ZM378.895 312.83C378.895 311.881 379.106 311.125 379.528 310.564C379.953 309.999 380.53 309.717 381.256 309.717C382.081 309.717 382.71 310.043 383.143 310.694V307.265H383.815V315.942H383.183L383.155 315.129C382.721 315.746 382.085 316.055 381.245 316.055C380.541 316.055 379.972 315.773 379.539 315.208C379.11 314.639 378.895 313.873 378.895 312.909V312.83ZM379.579 312.948C379.579 313.728 379.735 314.343 380.048 314.795C380.36 315.244 380.801 315.468 381.369 315.468C382.202 315.468 382.793 315.1 383.143 314.366V311.496C382.793 310.702 382.205 310.304 381.381 310.304C380.812 310.304 380.37 310.529 380.053 310.977C379.737 311.421 379.579 312.078 379.579 312.948ZM386.827 315.942H386.149V309.83H386.827V315.942ZM386.03 308.062C386.03 307.934 386.072 307.826 386.154 307.74C386.237 307.649 386.35 307.604 386.493 307.604C386.637 307.604 386.75 307.649 386.832 307.74C386.919 307.826 386.962 307.934 386.962 308.062C386.962 308.19 386.919 308.297 386.832 308.384C386.75 308.47 386.637 308.514 386.493 308.514C386.35 308.514 386.237 308.47 386.154 308.384C386.072 308.297 386.03 308.19 386.03 308.062ZM389.787 309.83L389.81 310.875C390.039 310.498 390.326 310.212 390.668 310.016C391.011 309.817 391.39 309.717 391.804 309.717C392.459 309.717 392.947 309.901 393.267 310.271C393.587 310.64 393.749 311.193 393.753 311.931V315.942H393.081V311.926C393.077 311.38 392.96 310.973 392.73 310.706C392.504 310.438 392.141 310.304 391.64 310.304C391.222 310.304 390.851 310.436 390.527 310.7C390.207 310.96 389.97 311.312 389.815 311.756V315.942H389.143V309.83H389.787ZM395.708 312.83C395.708 311.873 395.919 311.116 396.34 310.559C396.766 309.997 397.342 309.717 398.069 309.717C398.901 309.717 399.534 310.048 399.967 310.711L400.001 309.83H400.634V315.818C400.634 316.605 400.413 317.228 399.973 317.688C399.532 318.147 398.935 318.377 398.182 318.377C397.756 318.377 397.35 318.281 396.962 318.089C396.578 317.9 396.274 317.648 396.052 317.332L396.431 316.925C396.909 317.513 397.478 317.806 398.137 317.806C398.702 317.806 399.142 317.639 399.459 317.304C399.775 316.972 399.939 316.511 399.95 315.92V315.151C399.517 315.754 398.886 316.055 398.058 316.055C397.35 316.055 396.781 315.773 396.352 315.208C395.922 314.643 395.708 313.88 395.708 312.92V312.83ZM396.391 312.948C396.391 313.728 396.547 314.343 396.86 314.795C397.173 315.244 397.613 315.468 398.182 315.468C399.014 315.468 399.604 315.095 399.95 314.349V311.508C399.792 311.116 399.564 310.818 399.267 310.615C398.969 310.408 398.611 310.304 398.193 310.304C397.625 310.304 397.182 310.529 396.866 310.977C396.549 311.421 396.391 312.078 396.391 312.948ZM407.21 308.265V309.83H408.475V310.384H407.21V314.456C407.21 314.795 407.27 315.048 407.391 315.213C407.515 315.379 407.72 315.462 408.006 315.462C408.119 315.462 408.302 315.443 408.554 315.405L408.582 315.959C408.405 316.023 408.164 316.055 407.859 316.055C407.396 316.055 407.059 315.921 406.848 315.654C406.637 315.383 406.532 314.986 406.532 314.462V310.384H405.408V309.83H406.532V308.265H407.21ZM411.108 315.942H410.43V309.83H411.108V315.942ZM410.311 308.062C410.311 307.934 410.353 307.826 410.436 307.74C410.519 307.649 410.632 307.604 410.775 307.604C410.918 307.604 411.031 307.649 411.114 307.74C411.2 307.826 411.243 307.934 411.243 308.062C411.243 308.19 411.2 308.297 411.114 308.384C411.031 308.47 410.918 308.514 410.775 308.514C410.632 308.514 410.519 308.47 410.436 308.384C410.353 308.297 410.311 308.19 410.311 308.062ZM414.04 309.83L414.063 310.824C414.289 310.455 414.571 310.178 414.91 309.994C415.249 309.809 415.626 309.717 416.04 309.717C417.004 309.717 417.616 310.112 417.876 310.903C418.094 310.523 418.386 310.231 418.751 310.028C419.117 309.82 419.52 309.717 419.96 309.717C421.271 309.717 421.939 310.432 421.966 311.864V315.942H421.288V311.914C421.284 311.368 421.165 310.963 420.932 310.7C420.702 310.436 420.326 310.304 419.802 310.304C419.316 310.312 418.906 310.47 418.571 310.779C418.235 311.084 418.049 311.457 418.011 311.897V315.942H417.333V311.864C417.33 311.34 417.205 310.95 416.961 310.694C416.72 310.434 416.347 310.304 415.842 310.304C415.417 310.304 415.051 310.427 414.746 310.672C414.441 310.913 414.215 311.272 414.068 311.751V315.942H413.39V309.83H414.04ZM426.525 316.055C426.005 316.055 425.534 315.927 425.113 315.671C424.694 315.415 424.369 315.059 424.135 314.603C423.902 314.144 423.785 313.63 423.785 313.061V312.818C423.785 312.231 423.898 311.702 424.124 311.231C424.354 310.76 424.672 310.391 425.079 310.124C425.485 309.853 425.926 309.717 426.4 309.717C427.142 309.717 427.73 309.971 428.163 310.48C428.6 310.984 428.818 311.675 428.818 312.553V312.931H424.457V313.061C424.457 313.754 424.655 314.332 425.05 314.795C425.45 315.255 425.95 315.485 426.553 315.485C426.915 315.485 427.233 315.419 427.508 315.287C427.786 315.155 428.039 314.944 428.265 314.654L428.688 314.976C428.191 315.695 427.47 316.055 426.525 316.055ZM426.4 310.293C425.892 310.293 425.463 310.48 425.113 310.852C424.766 311.225 424.555 311.726 424.48 312.355H428.146V312.282C428.127 311.694 427.96 311.216 427.643 310.847C427.327 310.478 426.913 310.293 426.4 310.293ZM364.032 327.536L364.133 328.061L364.269 327.507L365.738 322.83H366.314L367.766 327.468L367.924 328.112L368.054 327.519L369.308 322.83H370.008L368.229 328.942H367.653L366.082 324.095L366.009 323.762L365.935 324.101L364.393 328.942H363.817L362.043 322.83H362.738L364.032 327.536ZM372.523 328.942H371.845V322.83H372.523V328.942ZM371.726 321.062C371.726 320.934 371.767 320.826 371.85 320.74C371.933 320.649 372.046 320.604 372.189 320.604C372.332 320.604 372.445 320.649 372.528 320.74C372.615 320.826 372.658 320.934 372.658 321.062C372.658 321.19 372.615 321.297 372.528 321.384C372.445 321.47 372.332 321.514 372.189 321.514C372.046 321.514 371.933 321.47 371.85 321.384C371.767 321.297 371.726 321.19 371.726 321.062ZM375.89 321.265V322.83H377.155V323.384H375.89V327.456C375.89 327.795 375.95 328.048 376.07 328.213C376.195 328.379 376.4 328.462 376.686 328.462C376.799 328.462 376.982 328.443 377.234 328.405L377.262 328.959C377.085 329.023 376.844 329.055 376.539 329.055C376.076 329.055 375.739 328.921 375.528 328.654C375.317 328.383 375.212 327.986 375.212 327.462V323.384H374.088V322.83H375.212V321.265H375.89ZM379.703 323.864C379.925 323.498 380.21 323.216 380.556 323.016C380.903 322.817 381.281 322.717 381.692 322.717C382.347 322.717 382.835 322.901 383.155 323.271C383.475 323.64 383.637 324.193 383.64 324.931V328.942H382.968V324.926C382.964 324.38 382.848 323.973 382.618 323.706C382.392 323.438 382.029 323.304 381.528 323.304C381.11 323.304 380.739 323.436 380.415 323.7C380.095 323.96 379.858 324.312 379.703 324.756V328.942H379.031V320.265H379.703V323.864ZM389.629 328.942V323.384H388.618V322.83H389.629V322.09C389.629 321.465 389.787 320.985 390.104 320.649C390.424 320.314 390.868 320.147 391.437 320.147C391.693 320.147 391.932 320.179 392.154 320.243L392.103 320.808C391.915 320.762 391.71 320.74 391.488 320.74C391.115 320.74 390.825 320.857 390.618 321.09C390.411 321.32 390.307 321.647 390.307 322.073V322.83H391.764V323.384H390.307V328.942H389.629ZM397.307 328.942C397.239 328.75 397.195 328.466 397.177 328.089C396.939 328.398 396.636 328.637 396.267 328.807C395.902 328.972 395.514 329.055 395.103 329.055C394.516 329.055 394.039 328.891 393.674 328.564C393.313 328.236 393.132 327.822 393.132 327.321C393.132 326.726 393.379 326.255 393.872 325.909C394.369 325.562 395.06 325.389 395.945 325.389H397.171V324.694C397.171 324.257 397.035 323.915 396.764 323.666C396.497 323.414 396.105 323.287 395.589 323.287C395.118 323.287 394.729 323.408 394.42 323.649C394.111 323.89 393.957 324.18 393.957 324.519L393.279 324.513C393.279 324.028 393.505 323.608 393.957 323.254C394.409 322.896 394.964 322.717 395.623 322.717C396.305 322.717 396.841 322.888 397.233 323.231C397.628 323.57 397.832 324.044 397.843 324.655V327.547C397.843 328.138 397.905 328.581 398.03 328.874V328.942H397.307ZM395.182 328.456C395.634 328.456 396.037 328.347 396.391 328.129C396.749 327.91 397.009 327.618 397.171 327.253V325.909H395.962C395.288 325.916 394.761 326.04 394.38 326.281C394 326.519 393.81 326.846 393.81 327.264C393.81 327.607 393.936 327.891 394.188 328.117C394.444 328.343 394.776 328.456 395.182 328.456ZM400.741 322.83L400.764 323.824C400.99 323.455 401.272 323.178 401.611 322.994C401.95 322.809 402.327 322.717 402.741 322.717C403.705 322.717 404.317 323.112 404.577 323.903C404.796 323.523 405.087 323.231 405.453 323.028C405.818 322.82 406.221 322.717 406.662 322.717C407.972 322.717 408.641 323.432 408.667 324.864V328.942H407.989V324.914C407.985 324.368 407.867 323.963 407.633 323.7C407.404 323.436 407.027 323.304 406.503 323.304C406.018 323.312 405.607 323.47 405.272 323.779C404.937 324.084 404.75 324.457 404.713 324.897V328.942H404.035V324.864C404.031 324.34 403.907 323.95 403.662 323.694C403.421 323.434 403.048 323.304 402.543 323.304C402.118 323.304 401.753 323.427 401.448 323.672C401.143 323.913 400.917 324.272 400.77 324.751V328.942H400.092V322.83H400.741ZM411.616 328.942H410.938V322.83H411.616V328.942ZM410.82 321.062C410.82 320.934 410.861 320.826 410.944 320.74C411.027 320.649 411.14 320.604 411.283 320.604C411.426 320.604 411.539 320.649 411.622 320.74C411.708 320.826 411.752 320.934 411.752 321.062C411.752 321.19 411.708 321.297 411.622 321.384C411.539 321.47 411.426 321.514 411.283 321.514C411.14 321.514 411.027 321.47 410.944 321.384C410.861 321.297 410.82 321.19 410.82 321.062ZM414.69 328.942H414.012V320.265H414.69V328.942ZM418.944 327.971L420.729 322.83H421.457L418.848 329.982L418.712 330.298C418.377 331.04 417.859 331.411 417.159 331.411C416.997 331.411 416.823 331.384 416.639 331.332L416.633 330.772L416.983 330.806C417.315 330.806 417.582 330.723 417.786 330.558C417.993 330.396 418.168 330.115 418.311 329.716L418.61 328.891L416.306 322.83H417.046L418.944 327.971Z" fill="black"/>
<path d="M46.9649 274.347C46.9649 273.891 46.8049 273.531 46.4848 273.268C46.1646 273 45.579 272.748 44.7279 272.511C43.8768 272.27 43.2554 272.008 42.8637 271.726C42.3064 271.326 42.0277 270.803 42.0277 270.155C42.0277 269.526 42.2857 269.016 42.8016 268.624C43.3213 268.229 43.9841 268.031 44.7901 268.031C45.3361 268.031 45.8238 268.137 46.2531 268.347C46.6862 268.558 47.0214 268.852 47.2587 269.229C47.4959 269.605 47.6146 270.025 47.6146 270.488H46.9141C46.9141 269.927 46.722 269.477 46.3379 269.138C45.9537 268.796 45.4378 268.624 44.7901 268.624C44.1611 268.624 43.6602 268.765 43.2874 269.048C42.9146 269.327 42.7282 269.692 42.7282 270.144C42.7282 270.562 42.8957 270.903 43.2309 271.166C43.5661 271.43 44.1028 271.663 44.8409 271.867C45.579 272.066 46.1383 272.275 46.5186 272.494C46.899 272.708 47.1852 272.966 47.3773 273.268C47.5694 273.569 47.6654 273.925 47.6654 274.335C47.6654 274.983 47.4055 275.503 46.8858 275.895C46.3699 276.286 45.6882 276.482 44.8409 276.482C44.2609 276.482 43.728 276.378 43.2422 276.171C42.7602 275.964 42.393 275.674 42.1407 275.301C41.8921 274.929 41.7678 274.501 41.7678 274.019H42.4627C42.4627 274.599 42.6792 275.057 43.1123 275.392C43.5454 275.727 44.1216 275.895 44.8409 275.895C45.4811 275.895 45.9952 275.753 46.3831 275.471C46.771 275.188 46.9649 274.814 46.9649 274.347ZM50.2417 276.369H49.5638V267.692H50.2417V276.369ZM54.9251 276.482C54.4054 276.482 53.9346 276.354 53.5128 276.098C53.0948 275.842 52.769 275.486 52.5355 275.03C52.3021 274.571 52.1853 274.057 52.1853 273.488V273.245C52.1853 272.658 52.2983 272.129 52.5242 271.658C52.754 271.187 53.0722 270.818 53.4789 270.551C53.8857 270.279 54.3263 270.144 54.8008 270.144C55.5427 270.144 56.1302 270.398 56.5633 270.906C57.0001 271.411 57.2186 272.102 57.2186 272.98V273.358H52.8575V273.488C52.8575 274.181 53.0553 274.759 53.4507 275.222C53.8499 275.682 54.3508 275.911 54.9533 275.911C55.3149 275.911 55.6331 275.846 55.908 275.714C56.1867 275.582 56.439 275.371 56.665 275.081L57.0886 275.403C56.5915 276.122 55.8703 276.482 54.9251 276.482ZM54.8008 270.72C54.2924 270.72 53.8631 270.906 53.5128 271.279C53.1664 271.652 52.9555 272.153 52.8801 272.782H56.5463V272.708C56.5275 272.121 56.3599 271.643 56.0436 271.274C55.7272 270.905 55.313 270.72 54.8008 270.72ZM61.3766 276.482C60.8569 276.482 60.3861 276.354 59.9643 276.098C59.5463 275.842 59.2206 275.486 58.9871 275.03C58.7536 274.571 58.6368 274.057 58.6368 273.488V273.245C58.6368 272.658 58.7498 272.129 58.9758 271.658C59.2055 271.187 59.5237 270.818 59.9304 270.551C60.3372 270.279 60.7778 270.144 61.2523 270.144C61.9942 270.144 62.5817 270.398 63.0148 270.906C63.4517 271.411 63.6701 272.102 63.6701 272.98V273.358H59.3091V273.488C59.3091 274.181 59.5068 274.759 59.9022 275.222C60.3014 275.682 60.8023 275.911 61.4048 275.911C61.7664 275.911 62.0846 275.846 62.3595 275.714C62.6382 275.582 62.8905 275.371 63.1165 275.081L63.5402 275.403C63.0431 276.122 62.3219 276.482 61.3766 276.482ZM61.2523 270.72C60.7439 270.72 60.3146 270.906 59.9643 271.279C59.6179 271.652 59.407 272.153 59.3317 272.782H62.9979V272.708C62.979 272.121 62.8114 271.643 62.4951 271.274C62.1788 270.905 61.7645 270.72 61.2523 270.72ZM70.3758 273.375C70.3758 274.328 70.1649 275.085 69.7431 275.646C69.3213 276.203 68.7564 276.482 68.0484 276.482C67.2124 276.482 66.5722 276.188 66.1278 275.601V278.719H65.4555V270.257H66.0826L66.1165 271.121C66.5571 270.47 67.1954 270.144 68.0315 270.144C68.7621 270.144 69.3345 270.421 69.7488 270.974C70.1668 271.528 70.3758 272.296 70.3758 273.279V273.375ZM69.6979 273.256C69.6979 272.477 69.5379 271.861 69.2178 271.409C68.8977 270.957 68.4514 270.731 67.879 270.731C67.4647 270.731 67.1088 270.831 66.8113 271.031C66.5138 271.23 66.2859 271.52 66.1278 271.901V274.833C66.2897 275.183 66.5213 275.45 66.8226 275.635C67.1239 275.819 67.4798 275.911 67.8903 275.911C68.4589 275.911 68.9014 275.686 69.2178 275.234C69.5379 274.778 69.6979 274.119 69.6979 273.256ZM72.2121 277.906L71.811 277.612C72.1537 277.152 72.3307 276.676 72.342 276.183V275.307H73.003V276.013C73.003 276.796 72.7393 277.427 72.2121 277.906ZM83.251 273.375C83.251 274.328 83.0401 275.085 82.6183 275.646C82.1965 276.203 81.6297 276.482 80.9179 276.482C80.0668 276.482 79.4228 276.166 78.986 275.533L78.9577 276.369H78.325V267.692H78.9973V271.144C79.4266 270.477 80.063 270.144 80.9066 270.144C81.6297 270.144 82.2002 270.421 82.6183 270.974C83.0401 271.524 83.251 272.29 83.251 273.273V273.375ZM82.5731 273.256C82.5731 272.451 82.4168 271.829 82.1042 271.392C81.7916 270.952 81.351 270.731 80.7823 270.731C80.3493 270.731 79.9821 270.839 79.6808 271.053C79.3795 271.264 79.1517 271.575 78.9973 271.985V274.742C79.3362 275.51 79.935 275.895 80.7936 275.895C81.351 275.895 81.786 275.674 82.0986 275.234C82.4149 274.793 82.5731 274.134 82.5731 273.256ZM87.5898 276.482C87.07 276.482 86.5993 276.354 86.1775 276.098C85.7595 275.842 85.4337 275.486 85.2002 275.03C84.9667 274.571 84.85 274.057 84.85 273.488V273.245C84.85 272.658 84.963 272.129 85.1889 271.658C85.4186 271.187 85.7369 270.818 86.1436 270.551C86.5503 270.279 86.991 270.144 87.4655 270.144C88.2074 270.144 88.7949 270.398 89.228 270.906C89.6648 271.411 89.8832 272.102 89.8832 272.98V273.358H85.5222V273.488C85.5222 274.181 85.7199 274.759 86.1154 275.222C86.5146 275.682 87.0154 275.911 87.618 275.911C87.9795 275.911 88.2978 275.846 88.5727 275.714C88.8514 275.582 89.1037 275.371 89.3296 275.081L89.7533 275.403C89.2562 276.122 88.535 276.482 87.5898 276.482ZM87.4655 270.72C86.9571 270.72 86.5277 270.906 86.1775 271.279C85.831 271.652 85.6201 272.153 85.5448 272.782H89.211V272.708C89.1922 272.121 89.0246 271.643 88.7083 271.274C88.3919 270.905 87.9777 270.72 87.4655 270.72ZM95.5326 276.369C95.4648 276.177 95.4215 275.893 95.4027 275.516C95.1654 275.825 94.8623 276.064 94.4932 276.233C94.1279 276.399 93.74 276.482 93.3295 276.482C92.742 276.482 92.2656 276.318 91.9003 275.991C91.5388 275.663 91.358 275.249 91.358 274.748C91.358 274.153 91.6047 273.682 92.098 273.336C92.5951 272.989 93.2862 272.816 94.1712 272.816H95.397V272.121C95.397 271.684 95.2615 271.341 94.9903 271.093C94.7229 270.841 94.3313 270.714 93.8153 270.714C93.3446 270.714 92.9548 270.835 92.646 271.076C92.3372 271.317 92.1827 271.607 92.1827 271.946L91.5049 271.94C91.5049 271.454 91.7308 271.035 92.1827 270.68C92.6347 270.323 93.1902 270.144 93.8492 270.144C94.5309 270.144 95.0675 270.315 95.4592 270.658C95.8546 270.997 96.058 271.471 96.0693 272.081V274.974C96.0693 275.565 96.1314 276.008 96.2557 276.301V276.369H95.5326ZM93.4086 275.883C93.8605 275.883 94.2635 275.774 94.6175 275.556C94.9752 275.337 95.2351 275.045 95.397 274.68V273.336H94.1881C93.514 273.343 92.9868 273.467 92.6064 273.708C92.2261 273.946 92.0359 274.273 92.0359 274.691C92.0359 275.034 92.162 275.318 92.4144 275.544C92.6704 275.77 93.0019 275.883 93.4086 275.883ZM102.284 275.595C101.877 276.186 101.227 276.482 100.335 276.482C99.6831 276.482 99.1879 276.294 98.8489 275.917C98.51 275.537 98.3367 274.976 98.3292 274.234V270.257H99.0014V274.149C99.0014 275.313 99.4722 275.895 100.414 275.895C101.393 275.895 102.012 275.49 102.272 274.68V270.257H102.95V276.369H102.295L102.284 275.595ZM106.238 268.692V270.257H107.504V270.81H106.238V274.883C106.238 275.222 106.298 275.475 106.419 275.64C106.543 275.806 106.748 275.889 107.035 275.889C107.148 275.889 107.33 275.87 107.583 275.832L107.611 276.386C107.434 276.45 107.193 276.482 106.888 276.482C106.425 276.482 106.088 276.348 105.877 276.081C105.666 275.81 105.56 275.412 105.56 274.889V270.81H104.436V270.257H105.56V268.692H106.238ZM110.136 276.369H109.458V270.257H110.136V276.369ZM109.34 268.489C109.34 268.361 109.381 268.253 109.464 268.167C109.547 268.076 109.66 268.031 109.803 268.031C109.946 268.031 110.059 268.076 110.142 268.167C110.229 268.253 110.272 268.361 110.272 268.489C110.272 268.617 110.229 268.724 110.142 268.811C110.059 268.897 109.946 268.941 109.803 268.941C109.66 268.941 109.547 268.897 109.464 268.811C109.381 268.724 109.34 268.617 109.34 268.489ZM112.939 276.369V270.81H111.927V270.257H112.939V269.517C112.939 268.892 113.097 268.411 113.413 268.076C113.733 267.741 114.178 267.574 114.746 267.574C115.002 267.574 115.242 267.606 115.464 267.67L115.413 268.234C115.225 268.189 115.019 268.167 114.797 268.167C114.424 268.167 114.134 268.283 113.927 268.517C113.72 268.747 113.616 269.074 113.616 269.5V270.257H115.074V270.81H113.616V276.369H112.939ZM120.689 275.595C120.283 276.186 119.633 276.482 118.74 276.482C118.089 276.482 117.594 276.294 117.255 275.917C116.916 275.537 116.743 274.976 116.735 274.234V270.257H117.407V274.149C117.407 275.313 117.878 275.895 118.82 275.895C119.799 275.895 120.418 275.49 120.678 274.68V270.257H121.356V276.369H120.701L120.689 275.595ZM124.35 276.369H123.672V267.692H124.35V276.369ZM73.7038 287.816C73.7038 287.48 73.5682 287.211 73.2971 287.008C73.0297 286.804 72.6248 286.646 72.0825 286.533C71.5402 286.417 71.1184 286.285 70.8171 286.138C70.5196 285.987 70.2974 285.805 70.1506 285.59C70.0074 285.375 69.9359 285.115 69.9359 284.81C69.9359 284.328 70.1374 283.931 70.5403 283.618C70.9433 283.302 71.4592 283.144 72.0882 283.144C72.7698 283.144 73.3159 283.313 73.7264 283.652C74.1406 283.987 74.3478 284.426 74.3478 284.968H73.6699C73.6699 284.611 73.5192 284.313 73.218 284.076C72.9205 283.839 72.5439 283.72 72.0882 283.72C71.6438 283.72 71.286 283.82 71.0149 284.019C70.7475 284.215 70.6138 284.471 70.6138 284.788C70.6138 285.093 70.7249 285.33 70.9471 285.499C71.173 285.665 71.5816 285.818 72.1729 285.957C72.7679 286.096 73.2123 286.245 73.5061 286.403C73.8036 286.561 74.0239 286.752 74.167 286.974C74.3101 287.196 74.3817 287.465 74.3817 287.782C74.3817 288.298 74.1727 288.71 73.7546 289.019C73.3404 289.328 72.7981 289.482 72.1277 289.482C71.4159 289.482 70.8379 289.311 70.3935 288.968C69.9528 288.621 69.7325 288.185 69.7325 287.657H70.4104C70.4368 288.053 70.6025 288.362 70.9075 288.584C71.2163 288.802 71.6231 288.911 72.1277 288.911C72.5985 288.911 72.9788 288.808 73.2688 288.601C73.5588 288.394 73.7038 288.132 73.7038 287.816ZM77.1387 289.369H76.4609V280.692H77.1387V289.369ZM81.8221 289.482C81.3024 289.482 80.8317 289.354 80.4099 289.098C79.9918 288.842 79.6661 288.486 79.4326 288.03C79.1991 287.571 79.0823 287.057 79.0823 286.488V286.245C79.0823 285.658 79.1953 285.129 79.4213 284.658C79.651 284.187 79.9692 283.818 80.376 283.551C80.7827 283.279 81.2233 283.144 81.6978 283.144C82.4397 283.144 83.0272 283.398 83.4603 283.906C83.8972 284.411 84.1156 285.102 84.1156 285.98V286.358H79.7546V286.488C79.7546 287.181 79.9523 287.759 80.3477 288.222C80.7469 288.682 81.2478 288.911 81.8504 288.911C82.2119 288.911 82.5301 288.846 82.805 288.714C83.0837 288.582 83.336 288.371 83.562 288.081L83.9857 288.403C83.4886 289.122 82.7674 289.482 81.8221 289.482ZM81.6978 283.72C81.1894 283.72 80.7601 283.906 80.4099 284.279C80.0634 284.652 79.8525 285.153 79.7772 285.782H83.4434V285.708C83.4245 285.121 83.257 284.643 82.9406 284.274C82.6243 283.905 82.21 283.72 81.6978 283.72ZM88.2736 289.482C87.7539 289.482 87.2832 289.354 86.8614 289.098C86.4434 288.842 86.1176 288.486 85.8841 288.03C85.6506 287.571 85.5339 287.057 85.5339 286.488V286.245C85.5339 285.658 85.6468 285.129 85.8728 284.658C86.1025 284.187 86.4208 283.818 86.8275 283.551C87.2342 283.279 87.6748 283.144 88.1494 283.144C88.8913 283.144 89.4788 283.398 89.9118 283.906C90.3487 284.411 90.5671 285.102 90.5671 285.98V286.358H86.2061V286.488C86.2061 287.181 86.4038 287.759 86.7992 288.222C87.1984 288.682 87.6993 288.911 88.3019 288.911C88.6634 288.911 88.9816 288.846 89.2566 288.714C89.5352 288.582 89.7876 288.371 90.0135 288.081L90.4372 288.403C89.9401 289.122 89.2189 289.482 88.2736 289.482ZM88.1494 283.72C87.6409 283.72 87.2116 283.906 86.8614 284.279C86.5149 284.652 86.304 285.153 86.2287 285.782H89.8949V285.708C89.8761 285.121 89.7085 284.643 89.3921 284.274C89.0758 283.905 88.6615 283.72 88.1494 283.72ZM97.2729 286.375C97.2729 287.328 97.062 288.085 96.6402 288.646C96.2184 289.203 95.6535 289.482 94.9455 289.482C94.1094 289.482 93.4692 289.188 93.0248 288.601V291.719H92.3526V283.257H92.9796L93.0135 284.121C93.4541 283.47 94.0925 283.144 94.9285 283.144C95.6591 283.144 96.2316 283.421 96.6458 283.974C97.0638 284.528 97.2729 285.296 97.2729 286.279V286.375ZM96.595 286.256C96.595 285.477 96.4349 284.861 96.1148 284.409C95.7947 283.957 95.3484 283.731 94.776 283.731C94.3617 283.731 94.0058 283.831 93.7083 284.031C93.4108 284.23 93.183 284.52 93.0248 284.901V287.833C93.1867 288.183 93.4184 288.45 93.7196 288.635C94.0209 288.819 94.3768 288.911 94.7873 288.911C95.356 288.911 95.7985 288.686 96.1148 288.234C96.4349 287.778 96.595 287.119 96.595 286.256Z" fill="black"/>
<path d="M309.846 36.3886C309.99 36.1538 310.246 36.0106 310.521 36.0106L311.029 36.0106C311.649 36.0106 312.029 36.6924 311.701 37.2197L275.437 95.6026C275.208 95.9714 274.722 96.0855 274.351 95.8601V95.8601C273.977 95.6325 273.856 95.1427 274.085 94.769L309.846 36.3886Z" fill="black"/>
<path d="M391.998 185.246C392.274 185.244 392.532 185.388 392.678 185.622V185.622C393.005 186.149 392.633 186.842 392.012 186.842L337.826 186.855C337.481 186.855 337.2 186.577 337.197 186.232V186.232C337.194 185.883 337.474 185.598 337.822 185.596L391.998 185.246Z" fill="black"/>
</svg>
